G04 #@! TF.FileFunction,Copper,L2,Bot,Signal*
%FSLAX46Y46*%
G04 Gerber Fmt 4.6, Leading zero omitted, Abs format (unit mm)*
G04 Created by KiCad (PCBNEW (after 2015-jan-16 BZR unknown)-product) date 11/03/2015 00:06:46*
%MOMM*%
G01*
G04 APERTURE LIST*
%ADD10C,0.150000*%
%ADD11C,0.609600*%
%ADD12C,0.600000*%
%ADD13C,0.254000*%
%ADD14C,0.152000*%
G04 APERTURE END LIST*
D10*
D11*
X88500000Y-44000000D03*
X91000000Y-50500000D03*
X103000000Y-48500000D03*
X83300000Y-45500000D03*
X70800000Y-51200000D03*
X73900000Y-50700000D03*
X75300000Y-50700000D03*
X74900000Y-47200000D03*
X74900000Y-46100000D03*
X74100000Y-48000000D03*
X79100000Y-44500000D03*
X79300000Y-43500000D03*
X79200000Y-45500000D03*
X86400000Y-48100000D03*
X84300000Y-50700000D03*
X104600000Y-48500000D03*
X104200000Y-51100000D03*
X73800000Y-41800000D03*
X94700000Y-47700000D03*
X93700000Y-48700000D03*
X95700000Y-48700000D03*
X95700000Y-46700000D03*
X93700000Y-46700000D03*
X94700000Y-45700000D03*
X94700000Y-49700000D03*
X96700000Y-47700000D03*
X92700000Y-47700000D03*
X75000000Y-49200000D03*
X97500000Y-50800000D03*
X102700000Y-43200000D03*
X104200000Y-41100000D03*
X95200000Y-41000000D03*
D12*
X92400000Y-50700000D03*
X90700000Y-47800000D03*
X98600000Y-47600000D03*
X97400000Y-43700000D03*
X91700000Y-41000000D03*
X94700000Y-43700000D03*
X75900000Y-46200000D03*
X86000000Y-49100000D03*
X78500000Y-48100000D03*
X101600000Y-45400000D03*
X105000000Y-43700000D03*
X100000000Y-42000000D03*
X90000000Y-42100000D03*
X71600000Y-46100000D03*
X91600000Y-51100000D03*
X98700000Y-45800000D03*
X97100000Y-44500000D03*
X86300000Y-47200000D03*
X90600000Y-46100000D03*
X93100000Y-43900000D03*
X90900000Y-41400000D03*
X99700000Y-46100000D03*
X90900000Y-51700000D03*
X80200000Y-51500000D03*
D13*
X94400000Y-43700000D02*
X91700000Y-41000000D01*
X94700000Y-43700000D02*
X94400000Y-43700000D01*
X101600000Y-45400000D02*
X103300000Y-43700000D01*
X103300000Y-43700000D02*
X105000000Y-43700000D01*
X101600000Y-45100000D02*
X100000000Y-43500000D01*
X100000000Y-43500000D02*
X100000000Y-42000000D01*
X101600000Y-45400000D02*
X101600000Y-45100000D01*
X98500000Y-42000000D02*
X98500000Y-42000000D01*
X98500000Y-42000000D02*
X100000000Y-42000000D01*
X90000000Y-40800000D02*
X90000000Y-42100000D01*
X90500000Y-40300000D02*
X90000000Y-40800000D01*
X92400000Y-40300000D02*
X90500000Y-40300000D01*
X94100000Y-42000000D02*
X92400000Y-40300000D01*
X94100000Y-42000000D02*
X98500000Y-42000000D01*
D14*
X72500000Y-48000000D02*
X72500000Y-47000000D01*
X74500000Y-50000000D02*
X72500000Y-48000000D01*
X71600000Y-46100000D02*
X72500000Y-47000000D01*
X87900000Y-50000000D02*
X89000000Y-51100000D01*
X89000000Y-51100000D02*
X91600000Y-51100000D01*
X74500000Y-50000000D02*
X87900000Y-50000000D01*
X98700000Y-45800000D02*
X98700000Y-45300000D01*
X97900000Y-44500000D02*
X98700000Y-45300000D01*
X97100000Y-44500000D02*
X97900000Y-44500000D01*
X86300000Y-47200000D02*
X89500000Y-47200000D01*
X89500000Y-47200000D02*
X90600000Y-46100000D01*
X93100000Y-43900000D02*
X90900000Y-41700000D01*
X90900000Y-41700000D02*
X90900000Y-41400000D01*
X85900000Y-51500000D02*
X86100000Y-51700000D01*
X80200000Y-51500000D02*
X85900000Y-51500000D01*
X86100000Y-51700000D02*
X90900000Y-51700000D01*
G36*
X93049603Y-44427955D02*
X91983838Y-45493720D01*
X92030844Y-45380518D01*
X92031080Y-45110793D01*
X91928078Y-44861509D01*
X91737520Y-44670619D01*
X91488416Y-44567182D01*
X91218691Y-44566946D01*
X90969407Y-44669948D01*
X90778517Y-44860506D01*
X90675080Y-45109610D01*
X90674844Y-45379335D01*
X90764638Y-45596654D01*
X90705486Y-45572092D01*
X90495435Y-45571909D01*
X90301303Y-45652122D01*
X90235028Y-45718281D01*
X90235028Y-43314742D01*
X90132026Y-43065458D01*
X89941468Y-42874568D01*
X89692364Y-42771131D01*
X89422639Y-42770895D01*
X89173355Y-42873897D01*
X88982465Y-43064455D01*
X88879028Y-43313559D01*
X88878792Y-43583284D01*
X88981794Y-43832568D01*
X89172352Y-44023458D01*
X89421456Y-44126895D01*
X89691181Y-44127131D01*
X89940465Y-44024129D01*
X90131355Y-43833571D01*
X90234792Y-43584467D01*
X90235028Y-43314742D01*
X90235028Y-45718281D01*
X90152644Y-45800522D01*
X90072092Y-45994514D01*
X90071914Y-46198164D01*
X89374079Y-46896000D01*
X86742584Y-46896000D01*
X86599478Y-46752644D01*
X86405486Y-46672092D01*
X86195435Y-46671909D01*
X86001303Y-46752122D01*
X85852644Y-46900522D01*
X85772092Y-47094514D01*
X85771909Y-47304565D01*
X85852122Y-47498697D01*
X86000522Y-47647356D01*
X86194514Y-47727908D01*
X86404565Y-47728091D01*
X86598697Y-47647878D01*
X86742826Y-47504000D01*
X89500000Y-47504000D01*
X89500000Y-47503999D01*
X89616335Y-47480859D01*
X89616336Y-47480859D01*
X89714960Y-47414960D01*
X90502006Y-46627914D01*
X90704565Y-46628091D01*
X90898697Y-46547878D01*
X91047356Y-46399478D01*
X91127908Y-46205486D01*
X91128091Y-45995435D01*
X91073417Y-45863114D01*
X91217508Y-45922946D01*
X91487233Y-45923182D01*
X91601655Y-45875903D01*
X90277559Y-47200000D01*
X90421383Y-47343824D01*
X90401303Y-47352122D01*
X90252644Y-47500522D01*
X90172092Y-47694514D01*
X90172082Y-47705476D01*
X89205559Y-48672000D01*
X86318800Y-48672000D01*
X86299478Y-48652644D01*
X86105486Y-48572092D01*
X85895435Y-48571909D01*
X85701303Y-48652122D01*
X85681390Y-48672000D01*
X79328000Y-48672000D01*
X79328000Y-47372000D01*
X77772000Y-47372000D01*
X77772000Y-48672000D01*
X76428000Y-48672000D01*
X76428000Y-46728000D01*
X78128000Y-46728000D01*
X78128000Y-45572000D01*
X75372000Y-45572000D01*
X75372000Y-46200113D01*
X75371909Y-46304565D01*
X75372000Y-46304785D01*
X75372000Y-49628000D01*
X86000113Y-49628000D01*
X86104565Y-49628091D01*
X86104785Y-49628000D01*
X90505559Y-49628000D01*
X91462907Y-50585348D01*
X91301303Y-50652122D01*
X91157173Y-50796000D01*
X89125920Y-50796000D01*
X88114960Y-49785040D01*
X88016336Y-49719141D01*
X87900000Y-49696000D01*
X74625920Y-49696000D01*
X72804000Y-47874079D01*
X72804000Y-47000000D01*
X72780859Y-46883665D01*
X72780859Y-46883664D01*
X72747909Y-46834352D01*
X72714960Y-46785040D01*
X72714960Y-46785039D01*
X72127914Y-46197994D01*
X72128091Y-45995435D01*
X72047878Y-45801303D01*
X71899478Y-45652644D01*
X71705486Y-45572092D01*
X71495435Y-45571909D01*
X71301303Y-45652122D01*
X71152644Y-45800522D01*
X71072092Y-45994514D01*
X71071909Y-46204565D01*
X71152122Y-46398697D01*
X71300522Y-46547356D01*
X71494514Y-46627908D01*
X71698165Y-46628085D01*
X72196000Y-47125920D01*
X72196000Y-48000000D01*
X72219141Y-48116336D01*
X72285040Y-48214960D01*
X74285039Y-50214960D01*
X74285040Y-50214960D01*
X74334352Y-50247909D01*
X74383664Y-50280859D01*
X74383665Y-50280859D01*
X74500000Y-50304000D01*
X87774079Y-50304000D01*
X88785040Y-51314961D01*
X88844161Y-51354463D01*
X88883664Y-51380859D01*
X88883665Y-51380859D01*
X88959781Y-51396000D01*
X86225920Y-51396000D01*
X86114960Y-51285040D01*
X86016336Y-51219141D01*
X85900000Y-51196000D01*
X80642584Y-51196000D01*
X80499478Y-51052644D01*
X80305486Y-50972092D01*
X80095435Y-50971909D01*
X79901303Y-51052122D01*
X79752644Y-51200522D01*
X79672092Y-51394514D01*
X79671909Y-51604565D01*
X79752122Y-51798697D01*
X79900522Y-51947356D01*
X80080285Y-52022000D01*
X69678000Y-52022000D01*
X69678000Y-40178000D01*
X85300000Y-40178000D01*
X90119954Y-40178000D01*
X89748977Y-40548977D01*
X89672023Y-40664147D01*
X89645000Y-40800000D01*
X89645000Y-41708326D01*
X89552644Y-41800522D01*
X89472092Y-41994514D01*
X89471909Y-42204565D01*
X89552122Y-42398697D01*
X89700522Y-42547356D01*
X89894514Y-42627908D01*
X90104565Y-42628091D01*
X90298697Y-42547878D01*
X90447356Y-42399478D01*
X90527908Y-42205486D01*
X90528091Y-41995435D01*
X90447878Y-41801303D01*
X90355000Y-41708262D01*
X90355000Y-40947046D01*
X90647046Y-40655000D01*
X91298245Y-40655000D01*
X91252644Y-40700522D01*
X91172092Y-40894514D01*
X91172051Y-40941255D01*
X91005486Y-40872092D01*
X90795435Y-40871909D01*
X90601303Y-40952122D01*
X90452644Y-41100522D01*
X90372092Y-41294514D01*
X90371909Y-41504565D01*
X90452122Y-41698697D01*
X90600522Y-41847356D01*
X90654976Y-41869967D01*
X90654977Y-41869967D01*
X90685040Y-41914960D01*
X92572085Y-43802006D01*
X92571909Y-44004565D01*
X92652122Y-44198697D01*
X92800522Y-44347356D01*
X92994514Y-44427908D01*
X93049603Y-44427955D01*
X93049603Y-44427955D01*
G37*
X93049603Y-44427955D02*
X91983838Y-45493720D01*
X92030844Y-45380518D01*
X92031080Y-45110793D01*
X91928078Y-44861509D01*
X91737520Y-44670619D01*
X91488416Y-44567182D01*
X91218691Y-44566946D01*
X90969407Y-44669948D01*
X90778517Y-44860506D01*
X90675080Y-45109610D01*
X90674844Y-45379335D01*
X90764638Y-45596654D01*
X90705486Y-45572092D01*
X90495435Y-45571909D01*
X90301303Y-45652122D01*
X90235028Y-45718281D01*
X90235028Y-43314742D01*
X90132026Y-43065458D01*
X89941468Y-42874568D01*
X89692364Y-42771131D01*
X89422639Y-42770895D01*
X89173355Y-42873897D01*
X88982465Y-43064455D01*
X88879028Y-43313559D01*
X88878792Y-43583284D01*
X88981794Y-43832568D01*
X89172352Y-44023458D01*
X89421456Y-44126895D01*
X89691181Y-44127131D01*
X89940465Y-44024129D01*
X90131355Y-43833571D01*
X90234792Y-43584467D01*
X90235028Y-43314742D01*
X90235028Y-45718281D01*
X90152644Y-45800522D01*
X90072092Y-45994514D01*
X90071914Y-46198164D01*
X89374079Y-46896000D01*
X86742584Y-46896000D01*
X86599478Y-46752644D01*
X86405486Y-46672092D01*
X86195435Y-46671909D01*
X86001303Y-46752122D01*
X85852644Y-46900522D01*
X85772092Y-47094514D01*
X85771909Y-47304565D01*
X85852122Y-47498697D01*
X86000522Y-47647356D01*
X86194514Y-47727908D01*
X86404565Y-47728091D01*
X86598697Y-47647878D01*
X86742826Y-47504000D01*
X89500000Y-47504000D01*
X89500000Y-47503999D01*
X89616335Y-47480859D01*
X89616336Y-47480859D01*
X89714960Y-47414960D01*
X90502006Y-46627914D01*
X90704565Y-46628091D01*
X90898697Y-46547878D01*
X91047356Y-46399478D01*
X91127908Y-46205486D01*
X91128091Y-45995435D01*
X91073417Y-45863114D01*
X91217508Y-45922946D01*
X91487233Y-45923182D01*
X91601655Y-45875903D01*
X90277559Y-47200000D01*
X90421383Y-47343824D01*
X90401303Y-47352122D01*
X90252644Y-47500522D01*
X90172092Y-47694514D01*
X90172082Y-47705476D01*
X89205559Y-48672000D01*
X86318800Y-48672000D01*
X86299478Y-48652644D01*
X86105486Y-48572092D01*
X85895435Y-48571909D01*
X85701303Y-48652122D01*
X85681390Y-48672000D01*
X79328000Y-48672000D01*
X79328000Y-47372000D01*
X77772000Y-47372000D01*
X77772000Y-48672000D01*
X76428000Y-48672000D01*
X76428000Y-46728000D01*
X78128000Y-46728000D01*
X78128000Y-45572000D01*
X75372000Y-45572000D01*
X75372000Y-46200113D01*
X75371909Y-46304565D01*
X75372000Y-46304785D01*
X75372000Y-49628000D01*
X86000113Y-49628000D01*
X86104565Y-49628091D01*
X86104785Y-49628000D01*
X90505559Y-49628000D01*
X91462907Y-50585348D01*
X91301303Y-50652122D01*
X91157173Y-50796000D01*
X89125920Y-50796000D01*
X88114960Y-49785040D01*
X88016336Y-49719141D01*
X87900000Y-49696000D01*
X74625920Y-49696000D01*
X72804000Y-47874079D01*
X72804000Y-47000000D01*
X72780859Y-46883665D01*
X72780859Y-46883664D01*
X72747909Y-46834352D01*
X72714960Y-46785040D01*
X72714960Y-46785039D01*
X72127914Y-46197994D01*
X72128091Y-45995435D01*
X72047878Y-45801303D01*
X71899478Y-45652644D01*
X71705486Y-45572092D01*
X71495435Y-45571909D01*
X71301303Y-45652122D01*
X71152644Y-45800522D01*
X71072092Y-45994514D01*
X71071909Y-46204565D01*
X71152122Y-46398697D01*
X71300522Y-46547356D01*
X71494514Y-46627908D01*
X71698165Y-46628085D01*
X72196000Y-47125920D01*
X72196000Y-48000000D01*
X72219141Y-48116336D01*
X72285040Y-48214960D01*
X74285039Y-50214960D01*
X74285040Y-50214960D01*
X74334352Y-50247909D01*
X74383664Y-50280859D01*
X74383665Y-50280859D01*
X74500000Y-50304000D01*
X87774079Y-50304000D01*
X88785040Y-51314961D01*
X88844161Y-51354463D01*
X88883664Y-51380859D01*
X88883665Y-51380859D01*
X88959781Y-51396000D01*
X86225920Y-51396000D01*
X86114960Y-51285040D01*
X86016336Y-51219141D01*
X85900000Y-51196000D01*
X80642584Y-51196000D01*
X80499478Y-51052644D01*
X80305486Y-50972092D01*
X80095435Y-50971909D01*
X79901303Y-51052122D01*
X79752644Y-51200522D01*
X79672092Y-51394514D01*
X79671909Y-51604565D01*
X79752122Y-51798697D01*
X79900522Y-51947356D01*
X80080285Y-52022000D01*
X69678000Y-52022000D01*
X69678000Y-40178000D01*
X85300000Y-40178000D01*
X90119954Y-40178000D01*
X89748977Y-40548977D01*
X89672023Y-40664147D01*
X89645000Y-40800000D01*
X89645000Y-41708326D01*
X89552644Y-41800522D01*
X89472092Y-41994514D01*
X89471909Y-42204565D01*
X89552122Y-42398697D01*
X89700522Y-42547356D01*
X89894514Y-42627908D01*
X90104565Y-42628091D01*
X90298697Y-42547878D01*
X90447356Y-42399478D01*
X90527908Y-42205486D01*
X90528091Y-41995435D01*
X90447878Y-41801303D01*
X90355000Y-41708262D01*
X90355000Y-40947046D01*
X90647046Y-40655000D01*
X91298245Y-40655000D01*
X91252644Y-40700522D01*
X91172092Y-40894514D01*
X91172051Y-40941255D01*
X91005486Y-40872092D01*
X90795435Y-40871909D01*
X90601303Y-40952122D01*
X90452644Y-41100522D01*
X90372092Y-41294514D01*
X90371909Y-41504565D01*
X90452122Y-41698697D01*
X90600522Y-41847356D01*
X90654976Y-41869967D01*
X90654977Y-41869967D01*
X90685040Y-41914960D01*
X92572085Y-43802006D01*
X92571909Y-44004565D01*
X92652122Y-44198697D01*
X92800522Y-44347356D01*
X92994514Y-44427908D01*
X93049603Y-44427955D01*
G36*
X106822000Y-50384848D02*
X106803424Y-50403424D01*
X105778083Y-51428765D01*
X105778083Y-51005337D01*
X105778083Y-41005337D01*
X105705465Y-40829588D01*
X105571119Y-40695007D01*
X105395497Y-40622083D01*
X105205337Y-40621917D01*
X105029588Y-40694535D01*
X104895007Y-40828881D01*
X104822083Y-41004503D01*
X104821917Y-41194663D01*
X104894535Y-41370412D01*
X105028881Y-41504993D01*
X105204503Y-41577917D01*
X105394663Y-41578083D01*
X105570412Y-41505465D01*
X105704993Y-41371119D01*
X105777917Y-41195497D01*
X105778083Y-41005337D01*
X105778083Y-51005337D01*
X105705465Y-50829588D01*
X105571119Y-50695007D01*
X105395497Y-50622083D01*
X105205337Y-50621917D01*
X105029588Y-50694535D01*
X104895007Y-50828881D01*
X104822083Y-51004503D01*
X104821917Y-51194663D01*
X104894535Y-51370412D01*
X105028881Y-51504993D01*
X105204503Y-51577917D01*
X105394663Y-51578083D01*
X105570412Y-51505465D01*
X105704993Y-51371119D01*
X105777917Y-51195497D01*
X105778083Y-51005337D01*
X105778083Y-51428765D01*
X105184848Y-52022000D01*
X91324794Y-52022000D01*
X91347356Y-51999478D01*
X91427908Y-51805486D01*
X91428086Y-51600325D01*
X91494514Y-51627908D01*
X91704565Y-51628091D01*
X91898697Y-51547878D01*
X92047356Y-51399478D01*
X92114745Y-51237186D01*
X92705559Y-51828000D01*
X96094441Y-51828000D01*
X99922441Y-48000000D01*
X98600000Y-46677559D01*
X97677559Y-47600000D01*
X98477559Y-48400000D01*
X96005559Y-50872000D01*
X93050441Y-50872000D01*
X93422441Y-50500000D01*
X92600000Y-49677559D01*
X92200000Y-50077559D01*
X91222441Y-49100000D01*
X92022441Y-48300000D01*
X91422441Y-47700000D01*
X94500000Y-44622441D01*
X95100000Y-45222441D01*
X96094441Y-44228000D01*
X96641234Y-44228000D01*
X96572092Y-44394514D01*
X96571909Y-44604565D01*
X96652122Y-44798697D01*
X96800522Y-44947356D01*
X96994514Y-45027908D01*
X97204565Y-45028091D01*
X97398697Y-44947878D01*
X97542826Y-44804000D01*
X97774079Y-44804000D01*
X98361717Y-45391638D01*
X98252644Y-45500522D01*
X98172092Y-45694514D01*
X98171909Y-45904565D01*
X98252122Y-46098697D01*
X98400522Y-46247356D01*
X98594514Y-46327908D01*
X98804565Y-46328091D01*
X98998697Y-46247878D01*
X99147356Y-46099478D01*
X99227908Y-45905486D01*
X99228091Y-45695435D01*
X99147878Y-45501303D01*
X99004000Y-45357173D01*
X99004000Y-45300000D01*
X98980859Y-45183665D01*
X98980859Y-45183664D01*
X98954463Y-45144161D01*
X98914961Y-45085040D01*
X98114960Y-44285040D01*
X98029594Y-44228000D01*
X98328000Y-44228000D01*
X98328000Y-43072000D01*
X94405559Y-43072000D01*
X94339802Y-43137756D01*
X92227977Y-41025931D01*
X92228091Y-40895435D01*
X92147878Y-40701303D01*
X92101655Y-40655000D01*
X92252954Y-40655000D01*
X93848977Y-42251023D01*
X93964147Y-42327977D01*
X93964148Y-42327977D01*
X94100000Y-42355000D01*
X98500000Y-42355000D01*
X99608326Y-42355000D01*
X99645000Y-42391737D01*
X99645000Y-43500000D01*
X99672023Y-43635853D01*
X99748977Y-43751023D01*
X101136750Y-45138796D01*
X101072092Y-45294514D01*
X101071909Y-45504565D01*
X101152122Y-45698697D01*
X101300522Y-45847356D01*
X101494514Y-45927908D01*
X101704565Y-45928091D01*
X101898697Y-45847878D01*
X102047356Y-45699478D01*
X102127908Y-45505486D01*
X102128022Y-45374023D01*
X103447046Y-44055000D01*
X104608326Y-44055000D01*
X104700522Y-44147356D01*
X104894514Y-44227908D01*
X105104565Y-44228091D01*
X105298697Y-44147878D01*
X105447356Y-43999478D01*
X105527908Y-43805486D01*
X105528091Y-43595435D01*
X105447878Y-43401303D01*
X105299478Y-43252644D01*
X105105486Y-43172092D01*
X104895435Y-43171909D01*
X104701303Y-43252122D01*
X104608262Y-43345000D01*
X103300000Y-43345000D01*
X103164147Y-43372023D01*
X103048977Y-43448977D01*
X101750000Y-44747954D01*
X100355000Y-43352954D01*
X100355000Y-42391673D01*
X100447356Y-42299478D01*
X100527908Y-42105486D01*
X100528091Y-41895435D01*
X100447878Y-41701303D01*
X100299478Y-41552644D01*
X100105486Y-41472092D01*
X99895435Y-41471909D01*
X99701303Y-41552122D01*
X99608262Y-41645000D01*
X98500000Y-41645000D01*
X94247046Y-41645000D01*
X94034971Y-41432925D01*
X94181309Y-41433054D01*
X94430593Y-41330052D01*
X94621483Y-41139494D01*
X94724920Y-40890390D01*
X94725156Y-40620665D01*
X94622154Y-40371381D01*
X94431596Y-40180491D01*
X94425597Y-40178000D01*
X105184848Y-40178000D01*
X106822000Y-41815151D01*
X106822000Y-50384848D01*
X106822000Y-50384848D01*
G37*
X106822000Y-50384848D02*
X106803424Y-50403424D01*
X105778083Y-51428765D01*
X105778083Y-51005337D01*
X105778083Y-41005337D01*
X105705465Y-40829588D01*
X105571119Y-40695007D01*
X105395497Y-40622083D01*
X105205337Y-40621917D01*
X105029588Y-40694535D01*
X104895007Y-40828881D01*
X104822083Y-41004503D01*
X104821917Y-41194663D01*
X104894535Y-41370412D01*
X105028881Y-41504993D01*
X105204503Y-41577917D01*
X105394663Y-41578083D01*
X105570412Y-41505465D01*
X105704993Y-41371119D01*
X105777917Y-41195497D01*
X105778083Y-41005337D01*
X105778083Y-51005337D01*
X105705465Y-50829588D01*
X105571119Y-50695007D01*
X105395497Y-50622083D01*
X105205337Y-50621917D01*
X105029588Y-50694535D01*
X104895007Y-50828881D01*
X104822083Y-51004503D01*
X104821917Y-51194663D01*
X104894535Y-51370412D01*
X105028881Y-51504993D01*
X105204503Y-51577917D01*
X105394663Y-51578083D01*
X105570412Y-51505465D01*
X105704993Y-51371119D01*
X105777917Y-51195497D01*
X105778083Y-51005337D01*
X105778083Y-51428765D01*
X105184848Y-52022000D01*
X91324794Y-52022000D01*
X91347356Y-51999478D01*
X91427908Y-51805486D01*
X91428086Y-51600325D01*
X91494514Y-51627908D01*
X91704565Y-51628091D01*
X91898697Y-51547878D01*
X92047356Y-51399478D01*
X92114745Y-51237186D01*
X92705559Y-51828000D01*
X96094441Y-51828000D01*
X99922441Y-48000000D01*
X98600000Y-46677559D01*
X97677559Y-47600000D01*
X98477559Y-48400000D01*
X96005559Y-50872000D01*
X93050441Y-50872000D01*
X93422441Y-50500000D01*
X92600000Y-49677559D01*
X92200000Y-50077559D01*
X91222441Y-49100000D01*
X92022441Y-48300000D01*
X91422441Y-47700000D01*
X94500000Y-44622441D01*
X95100000Y-45222441D01*
X96094441Y-44228000D01*
X96641234Y-44228000D01*
X96572092Y-44394514D01*
X96571909Y-44604565D01*
X96652122Y-44798697D01*
X96800522Y-44947356D01*
X96994514Y-45027908D01*
X97204565Y-45028091D01*
X97398697Y-44947878D01*
X97542826Y-44804000D01*
X97774079Y-44804000D01*
X98361717Y-45391638D01*
X98252644Y-45500522D01*
X98172092Y-45694514D01*
X98171909Y-45904565D01*
X98252122Y-46098697D01*
X98400522Y-46247356D01*
X98594514Y-46327908D01*
X98804565Y-46328091D01*
X98998697Y-46247878D01*
X99147356Y-46099478D01*
X99227908Y-45905486D01*
X99228091Y-45695435D01*
X99147878Y-45501303D01*
X99004000Y-45357173D01*
X99004000Y-45300000D01*
X98980859Y-45183665D01*
X98980859Y-45183664D01*
X98954463Y-45144161D01*
X98914961Y-45085040D01*
X98114960Y-44285040D01*
X98029594Y-44228000D01*
X98328000Y-44228000D01*
X98328000Y-43072000D01*
X94405559Y-43072000D01*
X94339802Y-43137756D01*
X92227977Y-41025931D01*
X92228091Y-40895435D01*
X92147878Y-40701303D01*
X92101655Y-40655000D01*
X92252954Y-40655000D01*
X93848977Y-42251023D01*
X93964147Y-42327977D01*
X93964148Y-42327977D01*
X94100000Y-42355000D01*
X98500000Y-42355000D01*
X99608326Y-42355000D01*
X99645000Y-42391737D01*
X99645000Y-43500000D01*
X99672023Y-43635853D01*
X99748977Y-43751023D01*
X101136750Y-45138796D01*
X101072092Y-45294514D01*
X101071909Y-45504565D01*
X101152122Y-45698697D01*
X101300522Y-45847356D01*
X101494514Y-45927908D01*
X101704565Y-45928091D01*
X101898697Y-45847878D01*
X102047356Y-45699478D01*
X102127908Y-45505486D01*
X102128022Y-45374023D01*
X103447046Y-44055000D01*
X104608326Y-44055000D01*
X104700522Y-44147356D01*
X104894514Y-44227908D01*
X105104565Y-44228091D01*
X105298697Y-44147878D01*
X105447356Y-43999478D01*
X105527908Y-43805486D01*
X105528091Y-43595435D01*
X105447878Y-43401303D01*
X105299478Y-43252644D01*
X105105486Y-43172092D01*
X104895435Y-43171909D01*
X104701303Y-43252122D01*
X104608262Y-43345000D01*
X103300000Y-43345000D01*
X103164147Y-43372023D01*
X103048977Y-43448977D01*
X101750000Y-44747954D01*
X100355000Y-43352954D01*
X100355000Y-42391673D01*
X100447356Y-42299478D01*
X100527908Y-42105486D01*
X100528091Y-41895435D01*
X100447878Y-41701303D01*
X100299478Y-41552644D01*
X100105486Y-41472092D01*
X99895435Y-41471909D01*
X99701303Y-41552122D01*
X99608262Y-41645000D01*
X98500000Y-41645000D01*
X94247046Y-41645000D01*
X94034971Y-41432925D01*
X94181309Y-41433054D01*
X94430593Y-41330052D01*
X94621483Y-41139494D01*
X94724920Y-40890390D01*
X94725156Y-40620665D01*
X94622154Y-40371381D01*
X94431596Y-40180491D01*
X94425597Y-40178000D01*
X105184848Y-40178000D01*
X106822000Y-41815151D01*
X106822000Y-50384848D01*
G36*
X99492520Y-48000000D02*
X95968520Y-51524000D01*
X92831480Y-51524000D01*
X90631480Y-49324000D01*
X75676000Y-49324000D01*
X75676000Y-45876000D01*
X77824000Y-45876000D01*
X77824000Y-46424000D01*
X76124000Y-46424000D01*
X76124000Y-48976000D01*
X78076000Y-48976000D01*
X78076000Y-47676000D01*
X79024000Y-47676000D01*
X79024000Y-48976000D01*
X89331480Y-48976000D01*
X90907480Y-47400000D01*
X90707480Y-47200000D01*
X94531480Y-43376000D01*
X98024000Y-43376000D01*
X98024000Y-43924000D01*
X95968520Y-43924000D01*
X95100000Y-44792520D01*
X94500000Y-44192520D01*
X90992520Y-47700000D01*
X91592520Y-48300000D01*
X90792520Y-49100000D01*
X92200000Y-50507480D01*
X92600000Y-50107480D01*
X92992520Y-50500000D01*
X92592520Y-50900000D01*
X92868520Y-51176000D01*
X96131480Y-51176000D01*
X98907480Y-48400000D01*
X98107480Y-47600000D01*
X98600000Y-47107480D01*
X99492520Y-48000000D01*
X99492520Y-48000000D01*
G37*
X99492520Y-48000000D02*
X95968520Y-51524000D01*
X92831480Y-51524000D01*
X90631480Y-49324000D01*
X75676000Y-49324000D01*
X75676000Y-45876000D01*
X77824000Y-45876000D01*
X77824000Y-46424000D01*
X76124000Y-46424000D01*
X76124000Y-48976000D01*
X78076000Y-48976000D01*
X78076000Y-47676000D01*
X79024000Y-47676000D01*
X79024000Y-48976000D01*
X89331480Y-48976000D01*
X90907480Y-47400000D01*
X90707480Y-47200000D01*
X94531480Y-43376000D01*
X98024000Y-43376000D01*
X98024000Y-43924000D01*
X95968520Y-43924000D01*
X95100000Y-44792520D01*
X94500000Y-44192520D01*
X90992520Y-47700000D01*
X91592520Y-48300000D01*
X90792520Y-49100000D01*
X92200000Y-50507480D01*
X92600000Y-50107480D01*
X92992520Y-50500000D01*
X92592520Y-50900000D01*
X92868520Y-51176000D01*
X96131480Y-51176000D01*
X98907480Y-48400000D01*
X98107480Y-47600000D01*
X98600000Y-47107480D01*
X99492520Y-48000000D01*
M02*
