G04 (created by PCBNEW (2013-07-07 BZR 4022)-stable) date 15/02/2015 15:21:00*
%MOIN*%
G04 Gerber Fmt 3.4, Leading zero omitted, Abs format*
%FSLAX34Y34*%
G01*
G70*
G90*
G04 APERTURE LIST*
%ADD10C,0.00590551*%
%ADD11R,0.036X0.036*%
%ADD12R,0.03X0.02*%
%ADD13R,0.055X0.035*%
%ADD14R,0.045X0.025*%
%ADD15R,0.025X0.045*%
%ADD16R,0.026X0.016*%
%ADD17R,0.0984252X0.0393701*%
%ADD18C,0.019685*%
%ADD19C,0.03*%
%ADD20C,0.0354331*%
%ADD21R,0.05X0.1*%
%ADD22R,0.05X0.016*%
%ADD23R,0.0472441X0.0551181*%
%ADD24R,0.0358268X0.0480315*%
%ADD25R,0.0314X0.0314*%
%ADD26R,0.0314961X0.0787402*%
G04 APERTURE END LIST*
G54D10*
G54D11*
X30321Y-16027D03*
X30321Y-16727D03*
X29521Y-16377D03*
X27996Y-16056D03*
X28696Y-16056D03*
X28346Y-16856D03*
G54D12*
X32275Y-17518D03*
X32275Y-18268D03*
X33275Y-17518D03*
X32275Y-17893D03*
X33275Y-18268D03*
X39909Y-16752D03*
X39909Y-16002D03*
X38909Y-16752D03*
X39909Y-16377D03*
X38909Y-16002D03*
G54D13*
X34291Y-16081D03*
X34291Y-16831D03*
G54D14*
X27755Y-16865D03*
X27755Y-17465D03*
G54D15*
X38449Y-16732D03*
X37849Y-16732D03*
X38449Y-16102D03*
X37849Y-16102D03*
G54D14*
X40472Y-15999D03*
X40472Y-16599D03*
G54D15*
X38794Y-19685D03*
X39394Y-19685D03*
X39385Y-18937D03*
X39985Y-18937D03*
X39385Y-17362D03*
X39985Y-17362D03*
G54D14*
X30905Y-16117D03*
X30905Y-16717D03*
G54D15*
X32101Y-20118D03*
X32701Y-20118D03*
X28873Y-16968D03*
X29473Y-16968D03*
X32081Y-19507D03*
X32681Y-19507D03*
X32681Y-18877D03*
X32081Y-18877D03*
G54D14*
X33188Y-19473D03*
X33188Y-18873D03*
X31535Y-18282D03*
X31535Y-18882D03*
X34960Y-15999D03*
X34960Y-16599D03*
X33838Y-18193D03*
X33838Y-17593D03*
G54D16*
X39600Y-17889D03*
X39600Y-18409D03*
X39600Y-18149D03*
X40400Y-18409D03*
X40400Y-17889D03*
X40400Y-18149D03*
G54D10*
G36*
X35808Y-19057D02*
X36016Y-18849D01*
X36100Y-18932D01*
X35891Y-19141D01*
X35808Y-19057D01*
X35808Y-19057D01*
G37*
G36*
X35947Y-19197D02*
X36155Y-18988D01*
X36239Y-19071D01*
X36030Y-19280D01*
X35947Y-19197D01*
X35947Y-19197D01*
G37*
G36*
X36086Y-19336D02*
X36295Y-19127D01*
X36378Y-19211D01*
X36169Y-19419D01*
X36086Y-19336D01*
X36086Y-19336D01*
G37*
G36*
X36225Y-19475D02*
X36434Y-19266D01*
X36517Y-19350D01*
X36309Y-19559D01*
X36225Y-19475D01*
X36225Y-19475D01*
G37*
G36*
X36364Y-19614D02*
X36573Y-19405D01*
X36657Y-19489D01*
X36448Y-19698D01*
X36364Y-19614D01*
X36364Y-19614D01*
G37*
G36*
X36503Y-19753D02*
X36712Y-19545D01*
X36796Y-19628D01*
X36587Y-19837D01*
X36503Y-19753D01*
X36503Y-19753D01*
G37*
G36*
X36643Y-19893D02*
X36851Y-19684D01*
X36935Y-19767D01*
X36726Y-19976D01*
X36643Y-19893D01*
X36643Y-19893D01*
G37*
G36*
X36782Y-20032D02*
X36991Y-19823D01*
X37074Y-19907D01*
X36865Y-20115D01*
X36782Y-20032D01*
X36782Y-20032D01*
G37*
G36*
X36921Y-20171D02*
X37130Y-19962D01*
X37213Y-20046D01*
X37005Y-20254D01*
X36921Y-20171D01*
X36921Y-20171D01*
G37*
G36*
X37353Y-20046D02*
X37436Y-19962D01*
X37645Y-20171D01*
X37561Y-20254D01*
X37353Y-20046D01*
X37353Y-20046D01*
G37*
G36*
X37492Y-19907D02*
X37575Y-19823D01*
X37784Y-20032D01*
X37701Y-20115D01*
X37492Y-19907D01*
X37492Y-19907D01*
G37*
G36*
X37631Y-19767D02*
X37714Y-19684D01*
X37923Y-19893D01*
X37840Y-19976D01*
X37631Y-19767D01*
X37631Y-19767D01*
G37*
G36*
X37770Y-19628D02*
X37854Y-19545D01*
X38062Y-19753D01*
X37979Y-19837D01*
X37770Y-19628D01*
X37770Y-19628D01*
G37*
G36*
X37909Y-19489D02*
X37993Y-19405D01*
X38202Y-19614D01*
X38118Y-19698D01*
X37909Y-19489D01*
X37909Y-19489D01*
G37*
G36*
X38049Y-19350D02*
X38132Y-19266D01*
X38341Y-19475D01*
X38257Y-19559D01*
X38049Y-19350D01*
X38049Y-19350D01*
G37*
G36*
X38188Y-19211D02*
X38271Y-19127D01*
X38480Y-19336D01*
X38397Y-19419D01*
X38188Y-19211D01*
X38188Y-19211D01*
G37*
G36*
X38327Y-19071D02*
X38410Y-18988D01*
X38619Y-19197D01*
X38536Y-19280D01*
X38327Y-19071D01*
X38327Y-19071D01*
G37*
G36*
X38466Y-18932D02*
X38550Y-18849D01*
X38758Y-19057D01*
X38675Y-19141D01*
X38466Y-18932D01*
X38466Y-18932D01*
G37*
G36*
X38466Y-18626D02*
X38675Y-18417D01*
X38758Y-18501D01*
X38550Y-18709D01*
X38466Y-18626D01*
X38466Y-18626D01*
G37*
G36*
X38327Y-18487D02*
X38536Y-18278D01*
X38619Y-18361D01*
X38410Y-18570D01*
X38327Y-18487D01*
X38327Y-18487D01*
G37*
G36*
X38188Y-18348D02*
X38397Y-18139D01*
X38480Y-18222D01*
X38271Y-18431D01*
X38188Y-18348D01*
X38188Y-18348D01*
G37*
G36*
X38049Y-18208D02*
X38257Y-18000D01*
X38341Y-18083D01*
X38132Y-18292D01*
X38049Y-18208D01*
X38049Y-18208D01*
G37*
G36*
X37909Y-18069D02*
X38118Y-17860D01*
X38202Y-17944D01*
X37993Y-18153D01*
X37909Y-18069D01*
X37909Y-18069D01*
G37*
G36*
X37770Y-17930D02*
X37979Y-17721D01*
X38062Y-17805D01*
X37854Y-18013D01*
X37770Y-17930D01*
X37770Y-17930D01*
G37*
G36*
X37631Y-17791D02*
X37840Y-17582D01*
X37923Y-17665D01*
X37714Y-17874D01*
X37631Y-17791D01*
X37631Y-17791D01*
G37*
G36*
X37492Y-17652D02*
X37701Y-17443D01*
X37784Y-17526D01*
X37575Y-17735D01*
X37492Y-17652D01*
X37492Y-17652D01*
G37*
G36*
X37353Y-17512D02*
X37561Y-17304D01*
X37645Y-17387D01*
X37436Y-17596D01*
X37353Y-17512D01*
X37353Y-17512D01*
G37*
G36*
X36921Y-17387D02*
X37005Y-17304D01*
X37213Y-17512D01*
X37130Y-17596D01*
X36921Y-17387D01*
X36921Y-17387D01*
G37*
G36*
X36782Y-17526D02*
X36865Y-17443D01*
X37074Y-17652D01*
X36991Y-17735D01*
X36782Y-17526D01*
X36782Y-17526D01*
G37*
G36*
X36643Y-17665D02*
X36726Y-17582D01*
X36935Y-17791D01*
X36851Y-17874D01*
X36643Y-17665D01*
X36643Y-17665D01*
G37*
G36*
X36503Y-17805D02*
X36587Y-17721D01*
X36796Y-17930D01*
X36712Y-18013D01*
X36503Y-17805D01*
X36503Y-17805D01*
G37*
G36*
X36364Y-17944D02*
X36448Y-17860D01*
X36657Y-18069D01*
X36573Y-18153D01*
X36364Y-17944D01*
X36364Y-17944D01*
G37*
G36*
X36225Y-18083D02*
X36309Y-18000D01*
X36517Y-18208D01*
X36434Y-18292D01*
X36225Y-18083D01*
X36225Y-18083D01*
G37*
G36*
X36086Y-18222D02*
X36169Y-18139D01*
X36378Y-18348D01*
X36295Y-18431D01*
X36086Y-18222D01*
X36086Y-18222D01*
G37*
G36*
X35947Y-18361D02*
X36030Y-18278D01*
X36239Y-18487D01*
X36155Y-18570D01*
X35947Y-18361D01*
X35947Y-18361D01*
G37*
G36*
X35808Y-18501D02*
X35891Y-18417D01*
X36100Y-18626D01*
X36016Y-18709D01*
X35808Y-18501D01*
X35808Y-18501D01*
G37*
G36*
X36197Y-18779D02*
X37283Y-17693D01*
X38369Y-18779D01*
X37283Y-19865D01*
X36197Y-18779D01*
X36197Y-18779D01*
G37*
G54D17*
X41456Y-17755D03*
X41456Y-16771D03*
X41456Y-18543D03*
X41456Y-19527D03*
G54D18*
X41456Y-16181D03*
X41456Y-20118D03*
G54D19*
X36496Y-16222D03*
X36849Y-16575D03*
X36142Y-16575D03*
X36496Y-16929D03*
X35788Y-16929D03*
G54D20*
X37026Y-16045D03*
X35258Y-17105D03*
X35965Y-17813D03*
G54D19*
X36142Y-17282D03*
G54D21*
X33375Y-16594D03*
X32175Y-16594D03*
G54D14*
X30944Y-19906D03*
X30944Y-19306D03*
X31535Y-19306D03*
X31535Y-19906D03*
G54D15*
X28882Y-17559D03*
X28282Y-17559D03*
G54D14*
X27795Y-18646D03*
X27795Y-18046D03*
X27795Y-19109D03*
X27795Y-19709D03*
G54D15*
X35181Y-17992D03*
X34581Y-17992D03*
G54D14*
X31496Y-16717D03*
X31496Y-16117D03*
G54D22*
X28613Y-18197D03*
X28613Y-18452D03*
X28613Y-18712D03*
X28613Y-18967D03*
X30363Y-18967D03*
X30363Y-18712D03*
X30363Y-18452D03*
X30363Y-18197D03*
G54D23*
X35216Y-19527D03*
X35216Y-18661D03*
X34547Y-18661D03*
X34547Y-19527D03*
G54D15*
X35221Y-20196D03*
X34621Y-20196D03*
G54D24*
X30478Y-17500D03*
X31765Y-17500D03*
G54D14*
X39960Y-19621D03*
X39960Y-20221D03*
G54D25*
X40551Y-19586D03*
X40551Y-20176D03*
G54D15*
X29945Y-17598D03*
X29345Y-17598D03*
G54D14*
X33858Y-19700D03*
X33858Y-20300D03*
G54D26*
X28543Y-19960D03*
X30196Y-19960D03*
M02*
