G04 #@! TF.FileFunction,Paste,Top*
%FSLAX46Y46*%
G04 Gerber Fmt 4.6, Leading zero omitted, Abs format (unit mm)*
G04 Created by KiCad (PCBNEW (after 2015-jan-16 BZR unknown)-product) date 11/03/2015 00:06:46*
%MOMM*%
G01*
G04 APERTURE LIST*
%ADD10C,0.150000*%
%ADD11R,0.914400X0.914400*%
%ADD12R,0.762000X0.508000*%
%ADD13R,1.397000X0.889000*%
%ADD14R,1.143000X0.635000*%
%ADD15R,0.635000X1.143000*%
%ADD16R,0.660400X0.406400*%
%ADD17R,1.270000X2.540000*%
%ADD18R,1.270000X0.406400*%
%ADD19R,1.200000X1.400000*%
%ADD20R,0.910000X1.220000*%
%ADD21R,0.797560X0.797560*%
%ADD22R,0.800000X2.000000*%
%ADD23R,2.500000X1.000000*%
G04 APERTURE END LIST*
D10*
D11*
X77016000Y-40711000D03*
X77016000Y-42489000D03*
X74984000Y-41600000D03*
X71111000Y-40784000D03*
X72889000Y-40784000D03*
X72000000Y-42816000D03*
D12*
X81980000Y-44497500D03*
X81980000Y-46402500D03*
X84520000Y-44497500D03*
X81980000Y-45450000D03*
X84520000Y-46402500D03*
X101370000Y-42552500D03*
X101370000Y-40647500D03*
X98830000Y-42552500D03*
X101370000Y-41600000D03*
X98830000Y-40647500D03*
D13*
X87100000Y-40847500D03*
X87100000Y-42752500D03*
D14*
X70500000Y-42838000D03*
X70500000Y-44362000D03*
D15*
X97662000Y-42500000D03*
X96138000Y-42500000D03*
X97662000Y-40900000D03*
X96138000Y-40900000D03*
D14*
X102800000Y-40638000D03*
X102800000Y-42162000D03*
D15*
X98538000Y-50000000D03*
X100062000Y-50000000D03*
X100038000Y-48100000D03*
X101562000Y-48100000D03*
X100038000Y-44100000D03*
X101562000Y-44100000D03*
D14*
X78500000Y-40938000D03*
X78500000Y-42462000D03*
D15*
X81538000Y-51100000D03*
X83062000Y-51100000D03*
X73338000Y-43100000D03*
X74862000Y-43100000D03*
X81488000Y-49550000D03*
X83012000Y-49550000D03*
X83012000Y-47950000D03*
X81488000Y-47950000D03*
D14*
X84300000Y-49462000D03*
X84300000Y-47938000D03*
X80100000Y-46438000D03*
X80100000Y-47962000D03*
X88800000Y-40638000D03*
X88800000Y-42162000D03*
X85950000Y-46212000D03*
X85950000Y-44688000D03*
D16*
X100584000Y-45439600D03*
X100584000Y-46760400D03*
X100584000Y-46100000D03*
X102616000Y-46760400D03*
X102616000Y-45439600D03*
X102616000Y-46100000D03*
D10*
G36*
X90952334Y-48407107D02*
X91482664Y-47876777D01*
X91694796Y-48088909D01*
X91164466Y-48619239D01*
X90952334Y-48407107D01*
X90952334Y-48407107D01*
G37*
G36*
X91305888Y-48760660D02*
X91836218Y-48230330D01*
X92048350Y-48442462D01*
X91518020Y-48972792D01*
X91305888Y-48760660D01*
X91305888Y-48760660D01*
G37*
G36*
X91659441Y-49114214D02*
X92189771Y-48583884D01*
X92401903Y-48796016D01*
X91871573Y-49326346D01*
X91659441Y-49114214D01*
X91659441Y-49114214D01*
G37*
G36*
X92012994Y-49467767D02*
X92543324Y-48937437D01*
X92755456Y-49149569D01*
X92225126Y-49679899D01*
X92012994Y-49467767D01*
X92012994Y-49467767D01*
G37*
G36*
X92366548Y-49821320D02*
X92896878Y-49290990D01*
X93109010Y-49503122D01*
X92578680Y-50033452D01*
X92366548Y-49821320D01*
X92366548Y-49821320D01*
G37*
G36*
X92720101Y-50174874D02*
X93250431Y-49644544D01*
X93462563Y-49856676D01*
X92932233Y-50387006D01*
X92720101Y-50174874D01*
X92720101Y-50174874D01*
G37*
G36*
X93073654Y-50528427D02*
X93603984Y-49998097D01*
X93816116Y-50210229D01*
X93285786Y-50740559D01*
X93073654Y-50528427D01*
X93073654Y-50528427D01*
G37*
G36*
X93427208Y-50881980D02*
X93957538Y-50351650D01*
X94169670Y-50563782D01*
X93639340Y-51094112D01*
X93427208Y-50881980D01*
X93427208Y-50881980D01*
G37*
G36*
X93780761Y-51235534D02*
X94311091Y-50705204D01*
X94523223Y-50917336D01*
X93992893Y-51447666D01*
X93780761Y-51235534D01*
X93780761Y-51235534D01*
G37*
G36*
X94876777Y-50917336D02*
X95088909Y-50705204D01*
X95619239Y-51235534D01*
X95407107Y-51447666D01*
X94876777Y-50917336D01*
X94876777Y-50917336D01*
G37*
G36*
X95230330Y-50563782D02*
X95442462Y-50351650D01*
X95972792Y-50881980D01*
X95760660Y-51094112D01*
X95230330Y-50563782D01*
X95230330Y-50563782D01*
G37*
G36*
X95583884Y-50210229D02*
X95796016Y-49998097D01*
X96326346Y-50528427D01*
X96114214Y-50740559D01*
X95583884Y-50210229D01*
X95583884Y-50210229D01*
G37*
G36*
X95937437Y-49856676D02*
X96149569Y-49644544D01*
X96679899Y-50174874D01*
X96467767Y-50387006D01*
X95937437Y-49856676D01*
X95937437Y-49856676D01*
G37*
G36*
X96290990Y-49503122D02*
X96503122Y-49290990D01*
X97033452Y-49821320D01*
X96821320Y-50033452D01*
X96290990Y-49503122D01*
X96290990Y-49503122D01*
G37*
G36*
X96644544Y-49149569D02*
X96856676Y-48937437D01*
X97387006Y-49467767D01*
X97174874Y-49679899D01*
X96644544Y-49149569D01*
X96644544Y-49149569D01*
G37*
G36*
X96998097Y-48796016D02*
X97210229Y-48583884D01*
X97740559Y-49114214D01*
X97528427Y-49326346D01*
X96998097Y-48796016D01*
X96998097Y-48796016D01*
G37*
G36*
X97351650Y-48442462D02*
X97563782Y-48230330D01*
X98094112Y-48760660D01*
X97881980Y-48972792D01*
X97351650Y-48442462D01*
X97351650Y-48442462D01*
G37*
G36*
X97705204Y-48088909D02*
X97917336Y-47876777D01*
X98447666Y-48407107D01*
X98235534Y-48619239D01*
X97705204Y-48088909D01*
X97705204Y-48088909D01*
G37*
G36*
X97705204Y-47311091D02*
X98235534Y-46780761D01*
X98447666Y-46992893D01*
X97917336Y-47523223D01*
X97705204Y-47311091D01*
X97705204Y-47311091D01*
G37*
G36*
X97351650Y-46957538D02*
X97881980Y-46427208D01*
X98094112Y-46639340D01*
X97563782Y-47169670D01*
X97351650Y-46957538D01*
X97351650Y-46957538D01*
G37*
G36*
X96998097Y-46603984D02*
X97528427Y-46073654D01*
X97740559Y-46285786D01*
X97210229Y-46816116D01*
X96998097Y-46603984D01*
X96998097Y-46603984D01*
G37*
G36*
X96644544Y-46250431D02*
X97174874Y-45720101D01*
X97387006Y-45932233D01*
X96856676Y-46462563D01*
X96644544Y-46250431D01*
X96644544Y-46250431D01*
G37*
G36*
X96290990Y-45896878D02*
X96821320Y-45366548D01*
X97033452Y-45578680D01*
X96503122Y-46109010D01*
X96290990Y-45896878D01*
X96290990Y-45896878D01*
G37*
G36*
X95937437Y-45543324D02*
X96467767Y-45012994D01*
X96679899Y-45225126D01*
X96149569Y-45755456D01*
X95937437Y-45543324D01*
X95937437Y-45543324D01*
G37*
G36*
X95583884Y-45189771D02*
X96114214Y-44659441D01*
X96326346Y-44871573D01*
X95796016Y-45401903D01*
X95583884Y-45189771D01*
X95583884Y-45189771D01*
G37*
G36*
X95230330Y-44836218D02*
X95760660Y-44305888D01*
X95972792Y-44518020D01*
X95442462Y-45048350D01*
X95230330Y-44836218D01*
X95230330Y-44836218D01*
G37*
G36*
X94876777Y-44482664D02*
X95407107Y-43952334D01*
X95619239Y-44164466D01*
X95088909Y-44694796D01*
X94876777Y-44482664D01*
X94876777Y-44482664D01*
G37*
G36*
X93780761Y-44164466D02*
X93992893Y-43952334D01*
X94523223Y-44482664D01*
X94311091Y-44694796D01*
X93780761Y-44164466D01*
X93780761Y-44164466D01*
G37*
G36*
X93427208Y-44518020D02*
X93639340Y-44305888D01*
X94169670Y-44836218D01*
X93957538Y-45048350D01*
X93427208Y-44518020D01*
X93427208Y-44518020D01*
G37*
G36*
X93073654Y-44871573D02*
X93285786Y-44659441D01*
X93816116Y-45189771D01*
X93603984Y-45401903D01*
X93073654Y-44871573D01*
X93073654Y-44871573D01*
G37*
G36*
X92720101Y-45225126D02*
X92932233Y-45012994D01*
X93462563Y-45543324D01*
X93250431Y-45755456D01*
X92720101Y-45225126D01*
X92720101Y-45225126D01*
G37*
G36*
X92366548Y-45578680D02*
X92578680Y-45366548D01*
X93109010Y-45896878D01*
X92896878Y-46109010D01*
X92366548Y-45578680D01*
X92366548Y-45578680D01*
G37*
G36*
X92012994Y-45932233D02*
X92225126Y-45720101D01*
X92755456Y-46250431D01*
X92543324Y-46462563D01*
X92012994Y-45932233D01*
X92012994Y-45932233D01*
G37*
G36*
X91659441Y-46285786D02*
X91871573Y-46073654D01*
X92401903Y-46603984D01*
X92189771Y-46816116D01*
X91659441Y-46285786D01*
X91659441Y-46285786D01*
G37*
G36*
X91305888Y-46639340D02*
X91518020Y-46427208D01*
X92048350Y-46957538D01*
X91836218Y-47169670D01*
X91305888Y-46639340D01*
X91305888Y-46639340D01*
G37*
G36*
X90952334Y-46992893D02*
X91164466Y-46780761D01*
X91694796Y-47311091D01*
X91482664Y-47523223D01*
X90952334Y-46992893D01*
X90952334Y-46992893D01*
G37*
G36*
X91942284Y-47700000D02*
X94700000Y-44942284D01*
X97457716Y-47700000D01*
X94700000Y-50457716D01*
X91942284Y-47700000D01*
X91942284Y-47700000D01*
G37*
D17*
X84774000Y-42150000D03*
X81726000Y-42150000D03*
D14*
X78600000Y-50562000D03*
X78600000Y-49038000D03*
X80100000Y-49038000D03*
X80100000Y-50562000D03*
D15*
X73362000Y-44600000D03*
X71838000Y-44600000D03*
D14*
X70600000Y-47362000D03*
X70600000Y-45838000D03*
X70600000Y-48538000D03*
X70600000Y-50062000D03*
D15*
X89362000Y-45700000D03*
X87838000Y-45700000D03*
D14*
X80000000Y-42462000D03*
X80000000Y-40938000D03*
D18*
X72677500Y-46222100D03*
X72677500Y-46869800D03*
X72677500Y-47530200D03*
X72677500Y-48177900D03*
X77122500Y-48177900D03*
X77122500Y-47530200D03*
X77122500Y-46869800D03*
X77122500Y-46222100D03*
D19*
X89450000Y-49600000D03*
X89450000Y-47400000D03*
X87750000Y-47400000D03*
X87750000Y-49600000D03*
D15*
X89462000Y-51300000D03*
X87938000Y-51300000D03*
D20*
X77415000Y-44450000D03*
X80685000Y-44450000D03*
D14*
X101500000Y-49838000D03*
X101500000Y-51362000D03*
D21*
X103000000Y-49750700D03*
X103000000Y-51249300D03*
D15*
X76062000Y-44700000D03*
X74538000Y-44700000D03*
D14*
X86000000Y-50038000D03*
X86000000Y-51562000D03*
D22*
X72500000Y-50700000D03*
X76700000Y-50700000D03*
D23*
X105300000Y-45100000D03*
X105300000Y-42600000D03*
X105300000Y-47100000D03*
X105300000Y-49600000D03*
M02*
