M48
;DRILL file {Pcbnew (2013-07-07 BZR 4022)-stable} date 15/02/2015 15:21:25
;FORMAT={3:3/ absolute / metric / suppress leading zeros}
FMAT,2
METRIC,TZ
T1C0.300
%
G90
G05
M71
T1
X70800Y-51200
X71600Y-46100
X73800Y-41800
X73900Y-50700
X74100Y-48000
X74900Y-46100
X74900Y-47200
X75000Y-49200
X75300Y-50700
X75900Y-46200
X78500Y-48100
X79100Y-44500
X79200Y-45500
X79300Y-43500
X80200Y-51500
X83300Y-45500
X84300Y-50700
X86000Y-49100
X86300Y-47200
X86400Y-48100
X88500Y-44000
X90000Y-42100
X90600Y-46100
X90700Y-47800
X90900Y-41400
X90900Y-51700
X91000Y-50500
X91600Y-51100
X91700Y-41000
X92400Y-50700
X92700Y-47700
X93100Y-43900
X93700Y-46700
X93700Y-48700
X94700Y-43700
X94700Y-45700
X94700Y-47700
X94700Y-49700
X95700Y-46700
X95700Y-48700
X96700Y-47700
X97100Y-44500
X97400Y-43700
X97500Y-50800
X98600Y-47600
X98700Y-45800
X99700Y-46100
X100000Y-42000
X101600Y-45400
X102700Y-43200
X103000Y-48500
X104200Y-41100
X104200Y-51100
X104600Y-48500
X105000Y-43700
T0
M30
