M48
;DRILL file {kicad (after 2015-jan-16 BZR unknown)-product} date 11/03/2015 00:07:53
;FORMAT={3:3/ absolute / metric / keep zeros}
FMAT,2
METRIC,TZ
T1C0.300
T2C0.500
T3C0.900
%
G90
G05
M71
T1
X070800Y-051200
X071600Y-046100
X073800Y-041800
X073900Y-050700
X074100Y-048000
X074900Y-046100
X074900Y-047200
X075000Y-049200
X075300Y-050700
X075900Y-046200
X078500Y-048100
X079100Y-044500
X079200Y-045500
X079300Y-043500
X080200Y-051500
X083300Y-045500
X084300Y-050700
X086000Y-049100
X086300Y-047200
X086400Y-048100
X088500Y-044000
X090000Y-042100
X090600Y-046100
X090700Y-047800
X090900Y-041400
X090900Y-051700
X091000Y-050500
X091600Y-051100
X091700Y-041000
X092400Y-050700
X092700Y-047700
X093100Y-043900
X093700Y-046700
X093700Y-048700
X094700Y-043700
X094700Y-045700
X094700Y-047700
X094700Y-049700
X095200Y-041000
X095700Y-046700
X095700Y-048700
X096700Y-047700
X097100Y-044500
X097400Y-043700
X097500Y-050800
X098600Y-047600
X098700Y-045800
X099700Y-046100
X100000Y-042000
X101600Y-045400
X102700Y-043200
X103000Y-048500
X104200Y-041100
X104200Y-051100
X104600Y-048500
X105000Y-043700
T2
X105300Y-041100
X105300Y-051100
T3
X089557Y-043449
X091353Y-045245
X094047Y-040755
T0
M30
